<?xml version="1.0" encoding="UTF-8"?>
<svg width="231px" height="165px" viewBox="0 0 231 165" version="1.1" xmlns="http://www.w3.org/2000/svg" xmlns:xlink="http://www.w3.org/1999/xlink">
    <!-- Generator: Sketch 47 (45396) - http://www.bohemiancoding.com/sketch -->
    <title>Yinn</title>
    <desc>Created with Sketch.</desc>
    <defs>
        <polygon id="path-1" points="7.60577609e-15 164.53189 7.60577609e-15 0.000555288462 149.440405 0.000555288462 149.440405 164.53189 0 164.53189"></polygon>
    </defs>
    <g id="YinnApp" stroke="none" stroke-width="1" fill="none" fill-rule="evenodd">
        <g id="Icono">
            <g id="Yinn">
                <g id="Page-1">
                    <mask id="mask-2" fill="white">
                        <use xlink:href="#path-1"></use>
                    </mask>
                    <g id="Clip-2"></g>
                    <path d="M149.440405,82.5346659 C147.620778,101.177286 147.956782,115.856733 130.575276,138.416517 C99.7607075,171.25231 58.2310799,173.23945 24.0801327,143.723488 C1.87625925,120.291108 2.0221765,102.372743 -0.000157748382,82.7107716 C9.09955765,92.7162764 17.2425291,100.517286 30.0706275,104.693055 C45.5615186,110.273704 64.330421,112.132334 77.0725466,101.024185 C88.2853015,91.4248341 93.1755014,76.2495937 92.4482813,61.5606274 C91.8157103,51.2536803 89.0795646,45.7158678 83.9819257,36.308488 C80.5966454,30.842863 80.5911242,30.648512 76.6119213,25.2558678 C69.1220281,37.7276466 53.099525,51.4377187 56.8681338,73.3724062 C59.1838801,87.4045457 64.7871026,92.1371899 68.9343075,96.2026947 L68.4973445,96.6865889 C55.2504242,86.6168293 50.6260304,71.4138245 50.9675556,61.7811562 C50.883949,56.8581274 52.2894871,50.9006755 53.8945768,46.1537524 C53.979761,45.9038726 67.1075813,17.3120697 74.4081764,0.000555288462 C81.9367179,14.2064207 91.8007242,33.3154832 95.5346284,49.962238 C99.2377717,71.5946899 91.7715408,92.6774062 79.3622643,103.820459 C62.3333265,118.856084 35.2597605,116.960171 15.2036313,109.562935 C15.2399134,109.954017 15.277773,110.345099 15.3077452,110.739353 C17.3332344,124.102767 22.1240528,131.318344 28.296747,139.481084 C67.3662886,181.590195 130.398598,156.791805 135.381081,107.631325 C127.682171,110.194377 123.411922,110.53707 116.869308,111.091565 C107.656014,111.821373 89.7484178,108.764113 84.0686873,104.815219 C91.8496262,108.738728 114.775987,108.577695 126.951796,101.87695 C135.096345,97.9764447 139.820909,94.0648341 149.440405,82.5346659" id="Fill-1" fill="#FFD500" mask="url(#mask-2)"></path>
                </g>
                <path d="M150.861968,76.3174829 C146.747947,76.3174829 144.690968,72.4709313 144.690968,64.7777126 C144.690968,60.5814115 145.205213,56.7759994 146.233718,53.3613622 C147.838186,48.0954157 149.648328,45.462482 151.664198,45.462482 C152.857264,45.462482 153.803474,46.264704 154.502858,47.8691721 C155.078821,49.1033783 155.346228,50.3169962 155.305088,51.5100622 C155.305088,53.1556704 154.811413,56.0560115 153.824048,60.2111724 C152.877823,63.8315107 152.404718,66.0736183 152.404718,66.9375627 C152.404718,67.801507 152.620701,68.3980311 153.052673,68.7271527 C153.484645,69.0562744 153.99889,69.2208327 154.595423,69.2208327 C155.191956,69.2208327 155.942754,68.8300066 156.847838,68.0483427 C157.752923,67.2666788 158.657994,66.4130323 159.563078,65.4873776 C160.468163,64.5617229 161.301239,63.7080765 162.062333,62.9264125 C162.823427,62.1447486 163.347957,61.7539225 163.635938,61.7539225 C164.211901,61.7539225 164.499878,62.4532955 164.499878,63.8520626 C164.499878,66.731877 163.049708,69.5396541 160.149323,72.2754778 C157.248939,75.0113016 154.153184,76.3586232 150.861968,76.3174829 Z" id="Path" fill="#FFD500"></path>
                <path d="M115.687267,61.0134025 C115.687267,63.4818149 116.777466,64.7160026 118.957897,64.7160026 C121.344029,64.7160026 123.462718,63.2761169 125.314027,60.3963024 C125.80771,58.2158715 126.743635,54.4310292 128.121832,49.0416621 C129.500029,43.652295 130.312536,40.340558 130.559377,39.1063518 C131.0942,36.6790796 131.701009,34.7455188 132.379822,33.3056116 C133.058636,31.8657043 133.912282,31.1457615 134.940787,31.1457615 C136.833237,31.1457615 138.283407,31.5674423 139.291343,32.4108166 C140.299278,33.2541908 140.803238,34.7763556 140.803238,36.9773567 C140.803238,39.1783578 140.062725,41.6570181 138.581677,44.4134119 C138.334836,45.8944594 138.067429,47.437194 137.779447,49.0416621 C137.491466,50.6461302 137.12121,52.7442492 136.668667,55.3360823 C136.216125,57.9279153 135.372764,62.3298514 134.138557,68.5420227 C138.993102,66.5672928 141.965437,64.942279 143.055653,63.6669325 C144.145868,62.3915861 144.999515,61.7539225 145.616618,61.7539225 C146.233721,61.7539225 146.542268,62.3915861 146.542268,63.6669325 C146.542268,64.942279 146.161727,66.0530479 145.400633,66.9992727 C144.639539,67.9454974 143.446491,69.0151268 141.821453,70.2081928 C140.196414,71.4012588 137.224079,72.9234236 132.904357,74.7747329 C130.765067,83.9078589 126.856806,89.6674014 121.179457,92.0535334 C119.616129,92.7117768 117.970545,93.0408935 116.242657,93.0408935 C112.540038,93.0408935 109.598557,92.3415204 107.418127,90.9427534 C104.908574,89.3794255 103.653816,87.0550387 103.653816,83.9695232 C103.653816,81.2131293 107.767775,78.2922184 115.995817,75.2067029 C120.109837,73.6845153 122.598783,72.8000141 123.462727,72.5531728 C123.462727,71.5658079 123.565576,70.2904806 123.771277,68.7271527 C121.220584,70.16706 118.433377,70.8870028 115.409572,70.8870028 C112.385767,70.8870028 110.112804,69.9716469 108.590617,68.1409077 C107.068429,66.3101685 106.307346,63.7903686 106.307346,60.5814325 C106.307346,59.0592448 106.564469,57.434231 107.078722,55.7063423 C107.592974,53.9784536 108.168928,52.2197361 108.806602,50.4301371 C109.444275,48.6405381 110.020229,46.8818207 110.534482,45.153932 C111.048734,43.4260433 111.305857,41.8215993 111.305857,40.3405518 C111.305857,37.5841579 110.462495,36.2059817 108.775747,36.2059817 C108.199784,36.2059817 107.675254,36.37054 107.202142,36.6996617 C106.729029,37.0287834 106.255924,37.3784699 105.782811,37.7487317 C105.309699,38.1189936 104.826309,38.4686801 104.332626,38.7978018 C103.838944,39.1269234 103.273275,39.2914818 102.635601,39.2914818 C101.997928,39.2914818 101.679096,38.7360973 101.679096,37.6253117 C101.679096,35.3626003 102.728156,33.5113188 104.826306,32.0714116 C106.842177,30.5903641 109.248843,29.8498515 112.046377,29.8498515 C114.843911,29.8498515 116.94203,30.8783412 118.340797,32.9353516 C119.410442,34.4575392 119.945257,36.185402 119.945257,38.1189917 C119.945257,40.0525815 119.718989,41.9141479 119.266447,43.7037469 C118.813905,45.4933459 118.330514,47.3343426 117.816262,49.2267921 C117.302009,51.1192416 116.818619,53.0425174 116.366077,54.9966773 C115.913535,56.9508371 115.687267,58.9563921 115.687267,61.0134025 Z M117.908827,87.4869933 C119.554435,86.1293665 120.953181,83.2495952 122.105107,78.847593 C119.924676,79.629257 118.073394,80.2669206 116.551207,80.7606031 C115.029019,81.2542856 113.774262,81.7068211 112.786897,82.1182231 C111.799532,82.5296252 111.079589,82.9307362 110.627047,83.3215682 C110.174504,83.7124001 109.948237,84.1752205 109.948237,84.7100432 C109.948237,85.7385484 110.56533,86.58191 111.799537,87.2401533 C113.033743,87.8983966 114.206221,88.2377982 115.317007,88.2583683 C116.427792,88.2789384 117.291724,88.021816 117.908827,87.4869933 Z" id="Combined-Shape" fill="#FFD500"></path>
                <path d="M153.392078,40.4639718 C152.281292,38.8183635 151.725908,37.0493612 151.725908,35.1569116 C151.725908,33.2644621 152.02417,31.6908728 152.620703,30.4360965 C153.217236,29.1813202 153.782905,28.2556794 154.317728,27.6591464 C154.852551,27.0626134 155.469645,26.7643514 156.169028,26.7643514 C157.320954,26.7643514 158.370013,27.6179979 159.316238,29.3253165 C160.262463,31.0326351 160.735568,32.4622358 160.735568,33.6141616 C160.735568,35.7534524 159.984771,37.4298907 158.483153,38.6435268 C156.981536,39.8571629 155.284527,40.4639718 153.392078,40.4639718 Z" id="Path" fill="#FFD500"></path>
                <path d="M169.621808,45.339062 C171.102856,45.339062 172.501602,46.7583778 173.818089,49.5970521 C175.751678,47.581182 178.148059,46.573262 181.007304,46.573262 C183.866548,46.573262 186.016092,47.2006408 187.455999,48.4554171 C188.895906,49.7101934 189.615849,51.4791957 189.615849,53.7624772 C189.615849,56.0457587 189.317587,58.3598607 188.721054,60.7048525 C188.124521,63.0498443 187.692555,64.7262825 187.425144,65.7342176 C187.157733,66.7421527 187.024029,67.5752294 187.024029,68.2334727 C187.024029,68.891716 187.250297,69.2208327 187.702839,69.2208327 C188.319942,69.2208327 189.081025,68.8300066 189.986109,68.0483427 C190.891194,67.2666788 191.796265,66.4130323 192.701349,65.4873776 C193.606434,64.5617229 194.43951,63.7080765 195.200604,62.9264125 C195.961698,62.1447486 196.486228,61.7539225 196.774209,61.7539225 C197.350172,61.7539225 197.638149,62.4532955 197.638149,63.8520626 C197.638149,66.731877 196.218834,69.5087994 193.380159,72.1829128 C188.607895,74.9804469 185.563566,76.3791929 184.247079,76.3791929 C184.123658,76.3791929 184.041379,76.3586232 184.000239,76.3174829 C180.709022,76.3174829 179.063439,73.6845492 179.063439,68.4186027 C179.063439,66.1558913 179.279422,64.078342 179.711394,62.1858925 C180.143366,60.293443 180.462198,58.9152667 180.667899,58.0513224 C180.8736,57.187378 180.976449,56.3028768 180.976449,55.3977923 C180.976449,53.9167448 180.122802,53.1762322 178.415484,53.1762322 C176.708165,53.1762322 175.083151,54.4412746 173.540394,56.9713973 C171.997636,59.5015201 170.958861,62.1241689 170.424038,64.8394226 L170.424038,65.2713926 C170.424038,66.6701596 170.640021,68.1100453 171.071994,69.5910927 C171.503966,71.0721402 171.719949,72.1006299 171.719949,72.6765928 C171.719949,74.0753599 169.971516,75.4535361 166.474598,76.811163 C165.939776,77.016864 165.46667,77.119713 165.055268,77.119713 C164.026763,77.119713 163.317105,76.5848983 162.926273,75.5152529 C162.535441,74.4456075 162.340028,72.7794541 162.340028,70.5167428 C162.340028,64.6748334 162.566296,60.4580254 163.018838,57.8661924 C163.635941,53.9990129 165.034687,50.3992988 167.215118,47.066942 C167.955642,45.9150162 168.757864,45.339062 169.621808,45.339062 Z" id="Path" fill="#FFD500"></path>
                <path d="M202.76008,45.339062 C204.241127,45.339062 205.639873,46.7583778 206.95636,49.5970521 C208.889949,47.581182 211.28633,46.573262 214.145575,46.573262 C217.004819,46.573262 219.154363,47.2006408 220.59427,48.4554171 C222.034177,49.7101934 222.75412,51.4791957 222.75412,53.7624772 C222.75412,56.0457587 222.455858,58.3598607 221.859325,60.7048525 C221.262792,63.0498443 220.830826,64.7262825 220.563415,65.7342176 C220.296004,66.7421527 220.1623,67.5752294 220.1623,68.2334727 C220.1623,68.891716 220.388568,69.2208327 220.84111,69.2208327 C221.458213,69.2208327 222.219296,68.8300066 223.12438,68.0483427 C224.029465,67.2666788 224.934536,66.4130323 225.83962,65.4873776 C226.744705,64.5617229 227.577781,63.7080765 228.338875,62.9264125 C229.099969,62.1447486 229.624499,61.7539225 229.91248,61.7539225 C230.488443,61.7539225 230.77642,62.4532955 230.77642,63.8520626 C230.77642,66.731877 229.357105,69.5087994 226.51843,72.1829128 C221.746166,74.9804469 218.701837,76.3791929 217.38535,76.3791929 C217.261929,76.3791929 217.17965,76.3586232 217.13851,76.3174829 C213.847293,76.3174829 212.20171,73.6845492 212.20171,68.4186027 C212.20171,66.1558913 212.417693,64.078342 212.849665,62.1858925 C213.281637,60.293443 213.600469,58.9152667 213.80617,58.0513224 C214.011871,57.187378 214.11472,56.3028768 214.11472,55.3977923 C214.11472,53.9167448 213.261073,53.1762322 211.553755,53.1762322 C209.846436,53.1762322 208.221422,54.4412746 206.678665,56.9713973 C205.135907,59.5015201 204.097132,62.1241689 203.56231,64.8394226 L203.56231,65.2713926 C203.56231,66.6701596 203.778292,68.1100453 204.210265,69.5910927 C204.642237,71.0721402 204.85822,72.1006299 204.85822,72.6765928 C204.85822,74.0753599 203.109787,75.4535361 199.612869,76.811163 C199.078047,77.016864 198.604941,77.119713 198.193539,77.119713 C197.165034,77.119713 196.455376,76.5848983 196.064544,75.5152529 C195.673712,74.4456075 195.478299,72.7794541 195.478299,70.5167428 C195.478299,64.6748334 195.704567,60.4580254 196.157109,57.8661924 C196.774212,53.9990129 198.172958,50.3992988 200.353389,47.066942 C201.093913,45.9150162 201.896135,45.339062 202.76008,45.339062 Z" id="Path" fill="#FFD500"></path>
            </g>
        </g>
    </g>
</svg>