<?xml version="1.0" encoding="UTF-8"?>
<svg width="23px" height="22px" viewBox="0 0 23 22" version="1.1" xmlns="http://www.w3.org/2000/svg" xmlns:xlink="http://www.w3.org/1999/xlink">
    <!-- Generator: Sketch 48.2 (47327) - http://www.bohemiancoding.com/sketch -->
    <title>ic_wifi_tethering_24px</title>
    <desc>Created with Sketch.</desc>
    <defs></defs>
    <g id="Dispositivos" stroke="none" stroke-width="1" fill="none" fill-rule="evenodd" transform="translate(-26.000000, -263.000000)">
        <g id="Group-Copy-2" transform="translate(0.000000, 250.000000)">
            <g id="ic_wifi_tethering_24px" transform="translate(24.000000, 10.000000)">
                <polygon id="Shape" points="0 0 27 0 27 27 0 27"></polygon>
                <path d="M13.5,12.375 C12.2625,12.375 11.25,13.3875 11.25,14.625 C11.25,15.8625 12.2625,16.875 13.5,16.875 C14.7375,16.875 15.75,15.8625 15.75,14.625 C15.75,13.3875 14.7375,12.375 13.5,12.375 Z M20.25,14.625 C20.25,10.90125 17.22375,7.875 13.5,7.875 C9.77625,7.875 6.75,10.90125 6.75,14.625 C6.75,17.1225 8.11125,19.29375 10.125,20.46375 L11.25,18.50625 C9.91125,17.71875 9,16.29 9,14.625 C9,12.13875 11.01375,10.125 13.5,10.125 C15.98625,10.125 18,12.13875 18,14.625 C18,16.29 17.08875,17.71875 15.75,18.50625 L16.875,20.46375 C18.88875,19.29375 20.25,17.1225 20.25,14.625 Z M13.5,3.375 C7.29,3.375 2.25,8.415 2.25,14.625 C2.25,18.7875 4.51125,22.41 7.86375,24.35625 L8.98875,22.41 C6.31125,20.84625 4.5,17.955 4.5,14.625 C4.5,9.6525 8.5275,5.625 13.5,5.625 C18.4725,5.625 22.5,9.6525 22.5,14.625 C22.5,17.955 20.68875,20.84625 18,22.41 L19.125,24.35625 C22.48875,22.41 24.75,18.7875 24.75,14.625 C24.75,8.415 19.71,3.375 13.5,3.375 Z" id="Shape" fill="#373737" fill-rule="nonzero"></path>
            </g>
        </g>
    </g>
</svg>