<?xml version="1.0" encoding="UTF-8"?>
<svg width="31px" height="20px" viewBox="0 0 31 20" version="1.1" xmlns="http://www.w3.org/2000/svg" xmlns:xlink="http://www.w3.org/1999/xlink">
    <!-- Generator: Sketch 48.2 (47327) - http://www.bohemiancoding.com/sketch -->
    <title>Group 3</title>
    <desc>Created with Sketch.</desc>
    <defs></defs>
    <g id="Dispositivos" stroke="none" stroke-width="1" fill="none" fill-rule="evenodd" transform="translate(-22.000000, -308.000000)">
        <g id="Group-Copy-3" transform="translate(0.000000, 294.000000)">
            <g id="Group-3" transform="translate(22.000000, 12.000000)">
                <g id="ic_wb_sunny_24px" transform="translate(0.000000, 4.000000)">
                    <polygon id="Shape" points="1 1 16 1 16 17 1 17"></polygon>
                    <path d="M4.71272727,3.5260274 L3.24,2.05479452 L2.08636364,3.21369863 L3.55090909,4.68493151 L4.71272727,3.5260274 Z M2.45454545,8.17808219 L0,8.17808219 L0,9.82191781 L2.45454545,9.82191781 L2.45454545,8.17808219 Z M9.81818182,0 L8.18181818,0 L8.18181818,2.42465753 L9.81818182,2.42465753 L9.81818182,0 Z M15.9136364,3.21369863 L14.76,2.05479452 L13.2954545,3.5260274 L14.4490909,4.68493151 L15.9136364,3.21369863 Z M13.2872727,14.4739726 L14.7518182,15.9534247 L15.9054545,14.7945205 L14.4327273,13.3232877 L13.2872727,14.4739726 Z M15.5454545,8.17808219 L15.5454545,9.82191781 L18,9.82191781 L18,8.17808219 L15.5454545,8.17808219 Z M9,4.06849315 C6.29181818,4.06849315 4.09090909,6.27945205 4.09090909,9 C4.09090909,11.7205479 6.29181818,13.9315068 9,13.9315068 C11.7081818,13.9315068 13.9090909,11.7205479 13.9090909,9 C13.9090909,6.27945205 11.7081818,4.06849315 9,4.06849315 Z M8.18181818,18 L9.81818182,18 L9.81818182,15.5753425 L8.18181818,15.5753425 L8.18181818,18 Z M2.08636364,14.7863014 L3.24,15.9452055 L4.70454545,14.4657534 L3.55090909,13.3068493 L2.08636364,14.7863014 Z" id="Shape" fill="#373737" fill-rule="nonzero"></path>
                </g>
                <g id="ic_cloud_24px" transform="translate(18.000000, 0.000000)">
                    <polygon id="Shape" points="0 0 13 0 13 13 0 13"></polygon>
                    <path d="M10.48125,5.43833333 C10.1129167,3.56958333 8.47166667,2.16666667 6.5,2.16666667 C4.93458333,2.16666667 3.575,3.055 2.89791667,4.355 C1.2675,4.52833333 0,5.90958333 0,7.58333333 C0,9.37625 1.45708333,10.8333333 3.25,10.8333333 L10.2916667,10.8333333 C11.7866667,10.8333333 13,9.62 13,8.125 C13,6.695 11.8895833,5.53583333 10.48125,5.43833333 Z" id="Shape" fill="#373737" fill-rule="nonzero"></path>
                </g>
            </g>
        </g>
    </g>
</svg>