<?xml version="1.0" encoding="UTF-8"?>
<svg width="28px" height="27px" viewBox="0 0 28 27" version="1.1" xmlns="http://www.w3.org/2000/svg" xmlns:xlink="http://www.w3.org/1999/xlink">
    <!-- Generator: Sketch 48.2 (47327) - http://www.bohemiancoding.com/sketch -->
    <title>ic_wb_incandescent_24px</title>
    <desc>Created with Sketch.</desc>
    <defs></defs>
    <g id="Dispositivos" stroke="none" stroke-width="1" fill="none" fill-rule="evenodd" transform="translate(-23.000000, -215.000000)">
        <g id="Group-Copy" transform="translate(0.000000, 206.000000)">
            <g id="ic_wb_incandescent_24px" transform="translate(22.000000, 7.000000)">
                <polygon id="Shape" points="0 0 31 0 31 31 0 31"></polygon>
                <path d="M4.24545455,23.9608592 L6.04,25.778043 L8.31818182,23.4582339 L6.52363636,21.6410501 L4.24545455,23.9608592 Z M13.7272727,29 L16.2727273,29 L16.2727273,25.1980907 L13.7272727,25.1980907 L13.7272727,29 Z M4.81818182,13.5990453 L1,13.5990453 L1,16.176611 L4.81818182,16.176611 L4.81818182,13.5990453 Z M18.8181818,8.19904535 L18.8181818,2 L11.1818182,2 L11.1818182,8.19904535 C8.90363636,9.53937947 7.36363636,12.0267303 7.36363636,14.8878282 C7.36363636,19.1536993 10.7872727,22.6205251 15,22.6205251 C19.2127273,22.6205251 22.6363636,19.1536993 22.6363636,14.8878282 C22.6363636,12.0267303 21.0963636,9.53937947 18.8181818,8.19904535 Z M25.1818182,13.5990453 L25.1818182,16.176611 L29,16.176611 L29,13.5990453 L25.1818182,13.5990453 Z M21.6690909,23.4711217 L23.9472727,25.7909308 L25.7418182,23.973747 L23.4509091,21.6668258 L21.6690909,23.4711217 Z" id="Shape" fill="#373737" fill-rule="nonzero"></path>
            </g>
        </g>
    </g>
</svg>