<?xml version="1.0" encoding="UTF-8"?>
<svg width="34px" height="28px" viewBox="0 0 34 28" version="1.1" xmlns="http://www.w3.org/2000/svg" xmlns:xlink="http://www.w3.org/1999/xlink">
    <!-- Generator: Sketch 48.2 (47327) - http://www.bohemiancoding.com/sketch -->
    <title>01</title>
    <desc>Created with Sketch.</desc>
    <defs></defs>
    <g id="Dashboard" stroke="none" stroke-width="1" fill="none" fill-rule="evenodd" transform="translate(-21.000000, -504.000000)">
        <g id="Group-Copy-7" transform="translate(0.000000, 496.000000)">
            <g id="01" transform="translate(21.000000, 5.000000)">
                <rect id="Rectangle" x="2" y="2" width="30" height="30"></rect>
                <g id="05">
                    <rect id="Rectangle" x="0" y="0" width="34" height="34"></rect>
                    <path d="M27.0771132,22.848 L27.3905699,22.8133491 C30.2433755,22.4979874 32.4259259,20.0762884 32.4259259,17.1813333 C32.4259259,14.0517198 29.8888728,11.5146667 26.7592593,11.5146667 C26.5823346,11.5146667 26.4065881,11.5227332 26.2323356,11.5387514 L25.1762905,11.6358286 L24.8247407,10.6352947 C23.5305262,6.95187522 20.2271896,4.48800001 16.6096296,4.48800001 C11.402035,4.48800001 7.39386978,8.23540527 7.06154695,13.3655998 L6.97877139,14.6434376 L5.69826831,14.6376724 C5.68876817,14.6376368 5.68876817,14.6376368 5.67925926,14.6376296 C3.41202809,14.6376296 1.57407409,16.4755836 1.57407409,18.7428148 C1.57407409,21.0100466 3.41202867,22.848 5.67926417,22.848 L27.0771132,22.848 Z" id="cloud" stroke="#777677" stroke-width="2.72000003"></path>
                    <path d="M22.631302,29.308 L22.8446439,29.2844162 C24.7838867,29.0700438 26.2681481,27.4231474 26.2681481,25.4546667 C26.2681481,23.3265294 24.542952,21.6013333 22.4148148,21.6013333 C22.294278,21.6013333 22.1746057,21.6068261 22.0559988,21.6177291 L20.9999537,21.7148063 L20.6484039,20.7142725 C19.7364719,18.118854 17.4159025,16.388 14.8844444,16.388 C11.2055773,16.388 8.38520579,19.0248861 8.15061679,22.6463259 L8.06784124,23.9241638 L6.78733816,23.9183986 C6.78107973,23.9183751 6.78107973,23.9183751 6.77481481,23.9183704 C5.2865097,23.9183704 4.08000001,25.1248801 4.08000001,26.6131852 C4.08000001,28.1014903 5.2865097,29.308 6.77481481,29.308 L22.631302,29.308 Z" id="cloud-copy" stroke="#777677" stroke-width="2.72000003"></path>
                </g>
            </g>
        </g>
    </g>
</svg>