<?xml version="1.0" encoding="UTF-8"?>
<svg width="24px" height="32px" viewBox="0 0 24 32" version="1.1" xmlns="http://www.w3.org/2000/svg" xmlns:xlink="http://www.w3.org/1999/xlink">
    <!-- Generator: Sketch 48.2 (47327) - http://www.bohemiancoding.com/sketch -->
    <title>bulb</title>
    <desc>Created with Sketch.</desc>
    <defs></defs>
    <g id="Dashboard" stroke="none" stroke-width="1" fill="none" fill-rule="evenodd" transform="translate(-24.000000, -213.000000)">
        <g id="Group-Copy" transform="translate(0.000000, 206.000000)" fill="#4CD06D">
            <path d="M28.0489366,27.9879868 C25.5655517,25.7894577 24,22.5775559 24,19 C24,12.372583 29.372583,7 36,7 C42.627417,7 48,12.372583 48,19 C48,22.5351969 46.4713018,25.7133471 44.0388879,27.9094684 C42.8714144,28.9635298 42.3935361,33.314352 41.2275404,36.0298342 C40.2686082,38.263087 38.8677424,39.0416197 36.0327148,38.9748535 C33.2665152,38.9097083 31.7263284,38.2123902 30.7692871,36.0864258 C29.5528228,33.3841811 29.2338217,29.0369601 28.0489366,27.9879868 L28.0489366,27.9879868 Z M26,19 C26,13.4771525 30.4771525,9 36,9 C41.5228475,9 46,13.4771525 46,19 C46,20.4039787 45.7097455,21.7600975 45.1685764,23 L26.8314485,23 C26.2903801,21.7602736 26,20.4041311 26,19 L26,19 Z M30.4462142,28 C30.1610402,27.3571063 29.8320342,26.8954144 29.3746555,26.4904991 C28.5582815,25.7677671 27.8724346,24.9262861 27.3368039,24 L27.3368039,24 L44.66319,24 C44.1437667,24.8981932 43.482983,25.7168207 42.6986172,26.4249906 C42.2402726,26.8388101 41.9047051,27.3213336 41.6043283,28 L30.4462142,28 L30.4462142,28 L30.4462142,28 Z M31.1018052,30 C31.1720882,30.2658547 31.2440709,30.5508756 31.3192464,30.8572605 C31.3437376,30.9570767 31.5960867,32.004759 31.7045027,32.4435106 L31.7045027,32.4435106 L40.8873043,30.1382947 C40.9002539,30.0916455 40.9131357,30.0455506 40.9259569,30 L31.1018052,30 L31.1018052,30 L31.1018052,30 Z M32.5749549,35.2249957 C32.3621958,34.7446626 32.1664961,34.1655223 31.9572719,33.4110846 L31.9572719,33.4110846 L40.5928403,31.2432441 C40.4835056,31.6645271 40.3300954,32.2573517 40.2770527,32.4580134 C40.1911713,32.7829042 40.1100328,33.0797864 40.0319804,33.353012 L32.5749542,35.2249958 L32.5749549,35.2249957 L32.5749549,35.2249957 Z M33.1241608,36.1181532 C33.6755154,36.7210257 34.4995511,36.9381923 36.0798027,36.9754079 C38.1496378,37.0241534 38.7757989,36.6706585 39.3897941,35.2407279 C39.4897734,35.0078865 39.586616,34.7549737 39.6843919,34.4712975 L33.1241608,36.1181532 L33.1241608,36.1181532 L33.1241608,36.1181532 Z M28.5,19.0473103 C28,19.0473103 28.0222143,18.3092774 28.0653021,17.9730396 C28.5271769,14.3687776 31.387523,11.5147644 34.9947964,11.0625444 C35.2453908,11.031129 36.0447247,11 36.0447247,11.5 C36.0447247,12 34.9166805,12.0833195 34.9166805,12.0833195 C31.918172,12.5491681 29.5491681,14.918172 29.0833195,17.9166805 C29.0833195,17.9166805 29,19.0473103 28.5,19.0473103 L28.5,19.0473103 Z" id="bulb"></path>
        </g>
    </g>
</svg>