<?xml version="1.0" encoding="UTF-8"?>
<svg width="24px" height="32px" viewBox="0 0 24 32" version="1.1" xmlns="http://www.w3.org/2000/svg" xmlns:xlink="http://www.w3.org/1999/xlink">
    <!-- Generator: Sketch 48.2 (47327) - http://www.bohemiancoding.com/sketch -->
    <title>bombillo_on</title>
    <desc>Created with Sketch.</desc>
    <defs></defs>
    <g id="iPhone-8" stroke="none" stroke-width="1" fill="none" fill-rule="evenodd" transform="translate(-139.000000, -542.000000)">
        <path d="M143.048937,562.987987 C140.565552,560.789458 139,557.577556 139,554 C139,547.372583 144.372583,542 151,542 C157.627417,542 163,547.372583 163,554 C163,557.535197 161.471302,560.713347 159.038888,562.909468 C157.871414,563.96353 157.393536,568.314352 156.22754,571.029834 C155.268608,573.263087 153.867742,574.04162 151.032715,573.974854 C148.266515,573.909708 146.726328,573.21239 145.769287,571.086426 C144.552823,568.384181 144.233822,564.03696 143.048937,562.987987 L143.048937,562.987987 Z M141,554 C141,548.477153 145.477153,544 151,544 C156.522847,544 161,548.477153 161,554 C161,555.403979 160.709745,556.760098 160.168576,558 L141.831449,558 C141.29038,556.760274 141,555.404131 141,554 L141,554 Z M145.446214,563 C145.16104,562.357106 144.832034,561.895414 144.374655,561.490499 C143.558282,560.767767 142.872435,559.926286 142.336804,559 L142.336804,559 L159.66319,559 C159.143767,559.898193 158.482983,560.716821 157.698617,561.424991 C157.240273,561.83881 156.904705,562.321334 156.604328,563 L145.446214,563 L145.446214,563 L145.446214,563 Z M146.101805,565 C146.172088,565.265855 146.244071,565.550876 146.319246,565.85726 C146.343738,565.957077 146.596087,567.004759 146.704503,567.443511 L146.704503,567.443511 L155.887304,565.138295 C155.900254,565.091645 155.913136,565.045551 155.925957,565 L146.101805,565 L146.101805,565 L146.101805,565 Z M147.574955,570.224996 C147.362196,569.744663 147.166496,569.165522 146.957272,568.411085 L146.957272,568.411085 L155.59284,566.243244 C155.483506,566.664527 155.330095,567.257352 155.277053,567.458013 C155.191171,567.782904 155.110033,568.079786 155.03198,568.353012 L147.574954,570.224996 L147.574955,570.224996 L147.574955,570.224996 Z M148.124161,571.118153 C148.675515,571.721026 149.499551,571.938192 151.079803,571.975408 C153.149638,572.024153 153.775799,571.670659 154.389794,570.240728 C154.489773,570.007887 154.586616,569.754974 154.684392,569.471298 L148.124161,571.118153 L148.124161,571.118153 L148.124161,571.118153 Z M143.5,554.04731 C143,554.04731 143.022214,553.309277 143.065302,552.97304 C143.527177,549.368778 146.387523,546.514764 149.994796,546.062544 C150.245391,546.031129 151.044725,546 151.044725,546.5 C151.044725,547 149.91668,547.08332 149.91668,547.08332 C146.918172,547.549168 144.549168,549.918172 144.08332,552.91668 C144.08332,552.91668 144,554.04731 143.5,554.04731 L143.5,554.04731 Z" id="bombillo_on" fill="#4CD06D"></path>
    </g>
</svg>