<?xml version="1.0" encoding="UTF-8"?>
<svg width="24px" height="32px" viewBox="0 0 24 32" version="1.1" xmlns="http://www.w3.org/2000/svg" xmlns:xlink="http://www.w3.org/1999/xlink">
    <!-- Generator: Sketch 48.2 (47327) - http://www.bohemiancoding.com/sketch -->
    <title>bombillo_off</title>
    <desc>Created with Sketch.</desc>
    <defs></defs>
    <g id="iPhone-8" stroke="none" stroke-width="1" fill="none" fill-rule="evenodd" transform="translate(-139.000000, -585.000000)">
        <path d="M143.048937,605.987987 C140.565552,603.789458 139,600.577556 139,597 C139,590.372583 144.372583,585 151,585 C157.627417,585 163,590.372583 163,597 C163,600.535197 161.471302,603.713347 159.038888,605.909468 C157.871414,606.96353 157.393536,611.314352 156.22754,614.029834 C155.268608,616.263087 153.867742,617.04162 151.032715,616.974854 C148.266515,616.909708 146.726328,616.21239 145.769287,614.086426 C144.552823,611.384181 144.233822,607.03696 143.048937,605.987987 L143.048937,605.987987 Z M141,597 C141,591.477153 145.477153,587 151,587 C156.522847,587 161,591.477153 161,597 C161,598.403979 160.709745,599.760098 160.168576,601 L141.831449,601 C141.29038,599.760274 141,598.404131 141,597 L141,597 Z M145.446214,606 C145.16104,605.357106 144.832034,604.895414 144.374655,604.490499 C143.558282,603.767767 142.872435,602.926286 142.336804,602 L142.336804,602 L159.66319,602 C159.143767,602.898193 158.482983,603.716821 157.698617,604.424991 C157.240273,604.83881 156.904705,605.321334 156.604328,606 L145.446214,606 L145.446214,606 L145.446214,606 Z M146.101805,608 C146.172088,608.265855 146.244071,608.550876 146.319246,608.85726 C146.343738,608.957077 146.596087,610.004759 146.704503,610.443511 L146.704503,610.443511 L155.887304,608.138295 C155.900254,608.091645 155.913136,608.045551 155.925957,608 L146.101805,608 L146.101805,608 L146.101805,608 Z M147.574955,613.224996 C147.362196,612.744663 147.166496,612.165522 146.957272,611.411085 L146.957272,611.411085 L155.59284,609.243244 C155.483506,609.664527 155.330095,610.257352 155.277053,610.458013 C155.191171,610.782904 155.110033,611.079786 155.03198,611.353012 L147.574954,613.224996 L147.574955,613.224996 L147.574955,613.224996 Z M148.124161,614.118153 C148.675515,614.721026 149.499551,614.938192 151.079803,614.975408 C153.149638,615.024153 153.775799,614.670659 154.389794,613.240728 C154.489773,613.007887 154.586616,612.754974 154.684392,612.471298 L148.124161,614.118153 L148.124161,614.118153 L148.124161,614.118153 Z M143.5,597.04731 C143,597.04731 143.022214,596.309277 143.065302,595.97304 C143.527177,592.368778 146.387523,589.514764 149.994796,589.062544 C150.245391,589.031129 151.044725,589 151.044725,589.5 C151.044725,590 149.91668,590.08332 149.91668,590.08332 C146.918172,590.549168 144.549168,592.918172 144.08332,595.91668 C144.08332,595.91668 144,597.04731 143.5,597.04731 L143.5,597.04731 Z" id="bombillo_off" fill="#D1501D"></path>
    </g>
</svg>