<?xml version="1.0" encoding="UTF-8"?>
<svg width="27px" height="32px" viewBox="0 0 27 32" version="1.1" xmlns="http://www.w3.org/2000/svg" xmlns:xlink="http://www.w3.org/1999/xlink">
    <!-- Generator: Sketch 48.2 (47327) - http://www.bohemiancoding.com/sketch -->
    <title>door handle</title>
    <desc>Created with Sketch.</desc>
    <defs></defs>
    <g id="Dashboard" stroke="none" stroke-width="1" fill="none" fill-rule="evenodd" transform="translate(-26.000000, -256.000000)">
        <g id="Group-Copy-2" transform="translate(-1.000000, 250.000000)" fill="#D1501D" fill-rule="nonzero">
            <path d="M45.0998613,15 L45.0998613,9.99743399 C45.0998613,8.89943766 44.201352,8 43.1006313,8 L31.0990913,8 C29.9966363,8 29.0998613,8.8975999 29.0998613,10.0042577 L29.0998613,33.9957423 C29.0998613,35.1053849 29.9939299,36 31.0990913,36 L43.1006313,36 C44.2038512,36 45.0998613,35.1046964 45.0998613,34.0025769 L45.0998613,21 L42.2971681,21 C41.2597399,22.7934041 39.3207084,24 37.0998613,24 C33.7861528,24 31.0998613,21.3137085 31.0998613,18 C31.0998613,14.6862915 33.7861528,12 37.0998613,12 C39.3207084,12 41.2597399,13.2065959 42.2971681,15 L45.0998613,15 Z M47.0998613,21 L47.0998613,34.0025769 C47.0998613,36.2102927 45.3073937,38 43.1006313,38 L31.0990913,38 C28.8903775,38 27.0998613,36.2109725 27.0998613,33.9957423 L27.0998613,10.0042577 C27.0998613,7.79276724 28.892329,6 31.0990913,6 L43.1006313,6 C45.3093451,6 47.0998613,7.79829425 47.0998613,9.99743399 L47.0998613,15 L50.0997551,15 C51.7587278,15 53.0998613,16.3374956 53.0998613,18 C53.0998613,19.6583224 51.7606238,21 50.0997551,21 L47.0998613,21 Z M41.101458,15 C40.1788518,13.7711294 38.713155,13 37.0998613,13 C34.3384376,13 32.0998613,15.2385763 32.0998613,18 C32.0998613,20.7614237 34.3384376,23 37.0998613,23 C38.7128058,23 40.1786397,22.2291976 41.1014484,21 L37.0999675,21 C35.4409948,21 34.0998613,19.6625044 34.0998613,18 C34.0998613,16.3416776 35.4390988,15 37.0999675,15 L41.101458,15 Z M37.0998613,32 C35.4430071,32 34.0998613,30.6568542 34.0998613,29 C34.0998613,27.3431458 35.4430071,26 37.0998613,26 C38.7567156,26 40.0998613,27.3431458 40.0998613,29 C40.0998613,30.6568542 38.7567156,32 37.0998613,32 Z M37.0998613,31 C38.2044308,31 39.0998613,30.1045695 39.0998613,29 C39.0998613,27.8954305 38.2044308,27 37.0998613,27 C35.9952918,27 35.0998613,27.8954305 35.0998613,29 C35.0998613,30.1045695 35.9952918,31 37.0998613,31 Z M36.0998613,18 C36.0998613,18.556717 36.5443501,19 37.0999675,19 L50.0997551,19 C50.6552384,19 51.0998613,18.554567 51.0998613,18 C51.0998613,17.443283 50.6553726,17 50.0997551,17 L37.0999675,17 C36.5444842,17 36.0998613,17.445433 36.0998613,18 Z" id="door-handle"></path>
        </g>
    </g>
</svg>