<?xml version="1.0" encoding="UTF-8"?>
<svg width="24px" height="32px" viewBox="0 0 24 32" version="1.1" xmlns="http://www.w3.org/2000/svg" xmlns:xlink="http://www.w3.org/1999/xlink">
    <!-- Generator: Sketch 48.2 (47327) - http://www.bohemiancoding.com/sketch -->
    <title>Path</title>
    <desc>Created with Sketch.</desc>
    <defs></defs>
    <g id="Dashboard" stroke="none" stroke-width="1" fill="none" fill-rule="evenodd" transform="translate(-26.000000, -546.000000)">
        <g id="Group-Copy-8" transform="translate(0.000000, 540.000000)" fill="#5281B8">
            <path d="M33,29 C32.3779718,27.0915044 31.5009624,26.119319 30.2197139,25.1202512 C29.8416697,24.825467 29.446082,24.5629309 28.9381699,24.2592362 C28.9289662,24.253733 27.9481732,23.681457 27.6882165,23.5170816 C26.9017749,23.0198 26.4086947,22.5673264 26.1016156,21.9392101 L26,21.73136 L26,21.5 L26,16.0098624 C26,14.3491551 27.3357645,13 28.991155,13 L32,13 L32,6.99754465 C32,6.44661595 32.4438648,6 33,6 C33.5522847,6 34,6.4463114 34,6.99754465 L34,13 L42,13 L42,6.99754465 C42,6.44661595 42.4438648,6 43,6 C43.5522847,6 44,6.4463114 44,6.99754465 L44,13 L47.008845,13 C48.6655868,13 50,14.3423001 50,16.0098624 L50,21.5 L50,21.73136 L49.8983844,21.9392101 C49.6133751,22.5221836 49.156956,22.9695425 48.4555515,23.4527129 C48.6191235,23.3400345 46.39256,24.744833 45.7562872,25.260075 C44.4942536,26.2820467 43.6299388,27.2066735 43,29 L43,31 C43,31 43,32 41,31.9999999 L41,38 L35,38 L34.9970301,31.9999999 C33,32 33,31 33,31 L33,29 Z M35,30 L41,30.0006073 L41,29.5 L41,29 L41,28.8294732 L41.0565154,28.6685837 C41.8138109,26.5126947 42.9569572,24.9534049 44.4976487,23.7057813 C44.97224,23.321466 45.4501888,22.9900108 46.0663641,22.6012494 C46.2267825,22.5000371 46.7492081,22.1761683 46.7493528,22.176078 C46.9943002,22.0232304 47.1671417,21.911644 47.3209719,21.8056764 C47.7644537,21.5001789 47.8977569,21.2091335 48,21 L48,16.0098624 C48,15.4442398 47.5583704,15 47.008845,15 L28.991155,15 C28.4448243,15 28,15.4492836 28,16.0098624 L28,21 C28.1070019,21.2188676 28.256644,21.5102234 28.757096,21.8266684 C28.9814338,21.9685214 29.9276342,22.5206132 29.9645447,22.542683 C30.5372867,22.8851414 30.9974035,23.190503 31.4495433,23.5430639 C33.0378527,24.7815659 34.2021221,26.3931148 34.950775,28.6901178 L35,28.8411492 L35,29 L35,30 Z M34,20 L42,20 L42,21 L34,21 L34,20 Z M35,22 L41,22 L41,23 L35,23 L35,22 Z M35,18 L41,18 L41,19 L35,19 L35,18 Z M37,32 L37,36 L39,36 L39,32 L37,32 Z" id="Path"></path>
        </g>
    </g>
</svg>