<?xml version="1.0" encoding="UTF-8"?>
<svg width="213px" height="295px" viewBox="0 0 213 295" version="1.1" xmlns="http://www.w3.org/2000/svg" xmlns:xlink="http://www.w3.org/1999/xlink">
    <!-- Generator: Sketch 46.2 (44496) - http://www.bohemiancoding.com/sketch -->
    <title>drop</title>
    <desc>Created with Sketch.</desc>
    <defs></defs>
    <g id="Page-1" stroke="none" stroke-width="1" fill="none" fill-rule="evenodd">
        <g id="drop" fill-rule="nonzero" fill="#4A90E2">
            <path d="M133.432,32.465 C126.632,22.465 120.632,13.265 115.032,4.865 C114.232,3.665 113.032,2.465 111.832,1.665 C107.032,-1.535 100.632,0.065 97.432,4.865 C92.232,13.265 86.232,22.065 79.032,32.465 C47.432,78.865 0.232,148.865 0.232,188.865 C0.232,218.065 12.232,244.465 31.432,263.665 C50.632,282.465 77.032,294.465 106.232,294.465 C135.432,294.465 161.832,282.465 181.032,263.265 C200.232,244.065 212.232,217.665 212.232,188.465 C212.232,148.465 165.032,78.865 133.432,32.465 Z M81.96,238.47 C80.1399909,238.47 78.55834,237.79834 77.215,236.455 C75.8716599,235.11166 75.2,233.443343 75.2,231.45 C75.2,229.803325 75.7199948,228.070009 76.76,226.25 L122.78,146.82 C124.600009,143.52665 127.026651,141.88 130.06,141.88 C131.966676,141.88 133.59166,142.55166 134.935,143.895 C136.27834,145.23834 136.95,146.906657 136.95,148.9 C136.95,150.546675 136.430005,152.279991 135.39,154.1 L89.37,233.53 C87.3766567,236.82335 84.9066814,238.47 81.96,238.47 Z M54.985,191.735 C50.7816456,186.924976 48.68,179.926713 48.68,170.74 C48.68,161.813289 50.8033121,154.945024 55.05,150.135 C59.2966879,145.324976 65.1032965,142.92 72.47,142.92 C79.9233706,142.92 85.7516456,145.324976 89.955,150.135 C94.1583543,154.945024 96.26,161.856622 96.26,170.87 C96.26,180.056713 94.1583543,187.03331 89.955,191.8 C85.7516456,196.56669 79.9233706,198.95 72.47,198.95 C65.0166294,198.95 59.1883543,196.545024 54.985,191.735 Z M78.32,183.09 C79.5333394,180.663321 80.14,176.590029 80.14,170.87 C80.14,165.409973 79.5116729,161.445012 78.255,158.975 C76.9983271,156.504988 75.070013,155.27 72.47,155.27 C69.869987,155.27 67.9633394,156.483321 66.75,158.91 C65.5366606,161.336679 64.93,165.323306 64.93,170.87 C64.93,176.503361 65.5366606,180.554988 66.75,183.025 C67.9633394,185.495012 69.869987,186.73 72.47,186.73 C75.1566801,186.73 77.1066606,185.516679 78.32,183.09 Z M122.065,229.695 C117.861646,224.884976 115.76,217.886713 115.76,208.7 C115.76,199.686622 117.861646,192.796691 122.065,188.03 C126.268354,183.263309 132.096629,180.88 139.55,180.88 C146.916703,180.88 152.723312,183.284976 156.97,188.095 C161.216688,192.905024 163.34,199.816622 163.34,208.83 C163.34,217.930046 161.238354,224.884976 157.035,229.695 C152.831646,234.505024 147.003371,236.91 139.55,236.91 C132.096629,236.91 126.268354,234.505024 122.065,229.695 Z M145.4,221.05 C146.613339,218.623321 147.22,214.550029 147.22,208.83 C147.22,203.283306 146.591673,199.275012 145.335,196.805 C144.078327,194.334988 142.150013,193.1 139.55,193.1 C136.949987,193.1 135.021673,194.334988 133.765,196.805 C132.508327,199.275012 131.88,203.283306 131.88,208.83 C131.88,214.550029 132.486661,218.623321 133.7,221.05 C134.913339,223.476679 136.86332,224.69 139.55,224.69 C142.23668,224.69 144.186661,223.476679 145.4,221.05 Z M166.632,248.865 C151.032,264.465 129.832,273.665 106.232,273.665 C82.632,273.665 61.432,264.065 45.832,248.865 C30.232,233.265 21.032,212.065 21.032,188.465 C21.032,154.865 66.232,88.065 96.232,43.665 C99.832,38.465 103.032,33.265 106.232,28.865 C109.432,33.265 112.632,38.465 116.232,43.665 C146.232,88.465 191.432,154.865 191.432,188.465 C191.432,212.065 181.832,233.265 166.632,248.865 Z" id="Shape"></path>
        </g>
    </g>
</svg>