<?xml version="1.0" encoding="utf-8"?>
<!-- Generator: Adobe Illustrator 21.0.2, SVG Export Plug-In . SVG Version: 6.00 Build 0)  -->
<svg version="1.1" id="Capa_1" xmlns="http://www.w3.org/2000/svg" xmlns:xlink="http://www.w3.org/1999/xlink" x="0px" y="0px"
	 viewBox="0 0 30 30" style="enable-background:new 0 0 30 30;" xml:space="preserve">
<style type="text/css">
	.st0{fill:none;}
	.st1{fill:#FCDC22;}
</style>
<title>01</title>
<desc>Created with Sketch.</desc>
<g id="Dashboard" transform="translate(-23.000000, -459.000000)">
	<g id="Group-Copy-6" transform="translate(0.000000, 452.000000)">
		<g id="_x30_1" transform="translate(23.000000, 7.000000)">
			<rect id="Rectangle" class="st0" width="30" height="30"/>
			<g id="sun">
				<path id="O" class="st1" d="M15,20.4L15,20.4c3,0,5.4-2.4,5.4-5.4S18,9.6,15,9.6S9.6,12,9.6,15S12,20.4,15,20.4L15,20.4z
					 M15,22.8L15,22.8c-4.3,0-7.8-3.5-7.8-7.8s3.5-7.8,7.8-7.8s7.8,3.5,7.8,7.8S19.3,22.8,15,22.8L15,22.8z"/>
				<path id="light" class="st1" d="M13.8,1.2C13.8,0.5,14.3,0,15,0c0.7,0,1.2,0.5,1.2,1.2v2.4c0,0.7-0.5,1.2-1.2,1.2
					c-0.7,0-1.2-0.5-1.2-1.2V1.2z M23.9,4.4c0.5-0.5,1.2-0.5,1.7,0c0.5,0.5,0.5,1.2,0,1.7l-1.7,1.7c-0.5,0.5-1.2,0.5-1.7,0
					c-0.5-0.5-0.5-1.2,0-1.7L23.9,4.4z M28.8,13.8c0.7,0,1.2,0.5,1.2,1.2c0,0.7-0.5,1.2-1.2,1.2h-2.4c-0.7,0-1.2-0.5-1.2-1.2
					c0-0.7,0.5-1.2,1.2-1.2H28.8z M25.6,23.9c0.5,0.5,0.5,1.2,0,1.7c-0.5,0.5-1.2,0.5-1.7,0l-1.7-1.7c-0.5-0.5-0.5-1.2,0-1.7
					c0.5-0.5,1.2-0.5,1.7,0L25.6,23.9z M16.2,28.8c0,0.7-0.5,1.2-1.2,1.2c-0.7,0-1.2-0.5-1.2-1.2v-2.4c0-0.7,0.5-1.2,1.2-1.2
					c0.7,0,1.2,0.5,1.2,1.2V28.8z M6.1,25.6c-0.5,0.5-1.2,0.5-1.7,0c-0.5-0.5-0.5-1.2,0-1.7l1.7-1.7c0.5-0.5,1.2-0.5,1.7,0
					c0.5,0.5,0.5,1.2,0,1.7L6.1,25.6z M1.2,16.2C0.5,16.2,0,15.7,0,15c0-0.7,0.5-1.2,1.2-1.2h2.4c0.7,0,1.2,0.5,1.2,1.2
					c0,0.7-0.5,1.2-1.2,1.2H1.2z M4.4,6.1c-0.5-0.5-0.5-1.2,0-1.7c0.5-0.5,1.2-0.5,1.7,0l1.7,1.7c0.5,0.5,0.5,1.2,0,1.7
					c-0.5,0.5-1.2,0.5-1.7,0L4.4,6.1z"/>
			</g>
		</g>
	</g>
</g>
</svg>
