<?xml version="1.0" encoding="UTF-8"?>
<svg width="488px" height="336px" viewBox="0 0 488 336" version="1.1" xmlns="http://www.w3.org/2000/svg" xmlns:xlink="http://www.w3.org/1999/xlink">
    <!-- Generator: Sketch 46.2 (44496) - http://www.bohemiancoding.com/sketch -->
    <title>movimiento</title>
    <desc>Created with Sketch.</desc>
    <defs></defs>
    <g id="Page-1" stroke="none" stroke-width="1" fill="none" fill-rule="evenodd">
        <g id="movimiento" fill-rule="nonzero" fill="#E24A75">
            <path d="M150.463,33.521 L300.975,33.521 C304.93,33.521 308.135,30.315 308.135,26.36 C308.135,22.405 304.93,19.199 300.975,19.199 L150.463,19.199 C146.508,19.199 143.302,22.405 143.302,26.36 C143.302,30.315 146.508,33.521 150.463,33.521 Z" id="Shape"></path>
            <path d="M15.853,103.537 L166.364,103.537 C170.319,103.537 173.525,100.331 173.525,96.376 C173.525,92.421 170.319,89.216 166.364,89.216 L15.853,89.216 C11.898,89.216 8.692,92.421 8.692,96.376 C8.692,100.331 11.898,103.537 15.853,103.537 Z" id="Shape"></path>
            <path d="M56.258,177.214 C56.258,181.169 59.464,184.376 63.419,184.376 L213.93,184.376 C217.885,184.376 221.091,181.169 221.091,177.214 C221.091,173.259 217.885,170.054 213.93,170.054 L63.419,170.054 C59.464,170.054 56.258,173.259 56.258,177.214 Z" id="Shape"></path>
            <path d="M142.396,260.44 L7.161,260.44 C3.206,260.44 0,263.645 0,267.6 C0,271.555 3.206,274.761 7.161,274.761 L142.396,274.761 C146.351,274.761 149.557,271.555 149.557,267.6 C149.557,263.645 146.351,260.44 142.396,260.44 Z" id="Shape"></path>
            <path d="M385.729,78.418 C407.329,78.418 424.84,60.905 424.84,39.304 C424.84,17.703 407.328,0.191 385.729,0.191 C364.124,0.191 346.61,17.704 346.61,39.304 C346.609,60.905 364.123,78.418 385.729,78.418 Z" id="Shape"></path>
            <path d="M450.066,67.155 C427.607,98.614 397.533,102.257 365.171,83.045 C362.968,81.739 353.194,76.354 351.03,75.068 C298.969,44.162 246.969,56.282 212.096,105.118 C197.277,125.889 231.551,145.577 246.204,125.048 C264.222,99.816 287.133,92.515 312.19,100.507 C299.36,122.777 288.143,144.912 272.315,176.36 C256.483,207.808 221.528,232.922 187.941,213.28 C163.706,199.115 141.851,233.931 166.013,248.052 C211.867,274.851 265.632,258.395 293.079,223.559 C294.031,224.068 295.037,224.527 296.141,224.913 C318.563,232.725 347.955,253.523 356.911,260.894 C365.864,268.265 381.247,305.815 390.382,324.682 C401.464,347.575 437.253,330.901 426.13,307.911 C415.775,286.505 398.394,243.782 384.837,232.973 C373.962,224.304 352.849,208.17 334.942,199.017 C347.057,175.551 359.671,152.338 372.95,129.526 C415.278,142.495 455.511,127.218 484.165,87.08 C498.996,66.312 464.73,46.624 450.066,67.155 Z" id="Shape"></path>
        </g>
    </g>
</svg>