<?xml version="1.0" encoding="UTF-8"?>
<svg width="24px" height="32px" viewBox="0 0 24 32" version="1.1" xmlns="http://www.w3.org/2000/svg" xmlns:xlink="http://www.w3.org/1999/xlink">
    <!-- Generator: Sketch 46.2 (44496) - http://www.bohemiancoding.com/sketch -->
    <title>consumo copy</title>
    <desc>Created with Sketch.</desc>
    <defs></defs>
    <g id="Page-1" stroke="none" stroke-width="1" fill="none" fill-rule="evenodd">
        <g id="consumo-copy" fill-rule="nonzero" fill="#4CD06D">
            <path d="M7,23 C6.3779718,21.0915044 5.5009624,20.119319 4.2197139,19.1202512 C3.8416697,18.825467 3.446082,18.5629309 2.9381699,18.2592362 C2.9289662,18.253733 1.9481732,17.681457 1.6882165,17.5170816 C0.9017749,17.0198 0.4086947,16.5673264 0.1016156,15.9392101 L0,15.73136 L0,15.5 L0,10.0098624 C0,8.3491551 1.3357645,7 2.991155,7 L6,7 L6,0.99754465 C6,0.44661595 6.4438648,0 7,0 C7.5522847,0 8,0.4463114 8,0.99754465 L8,7 L16,7 L16,0.99754465 C16,0.44661595 16.4438648,0 17,0 C17.5522847,0 18,0.4463114 18,0.99754465 L18,7 L21.008845,7 C22.6655868,7 24,8.3423001 24,10.0098624 L24,15.5 L24,15.73136 L23.8983844,15.9392101 C23.6133751,16.5221836 23.156956,16.9695425 22.4555515,17.4527129 C22.6191235,17.3400345 20.39256,18.744833 19.7562872,19.260075 C18.4942536,20.2820467 17.6299388,21.2066735 17,23 L17,25 C17,25 17,26 15,25.9999999 L15,32 L9,32 L8.9970301,25.9999999 C7,26 7,25 7,25 L7,23 Z M9,24 L15,24.0006073 L15,23.5 L15,23 L15,22.8294732 L15.0565154,22.6685837 C15.8138109,20.5126947 16.9569572,18.9534049 18.4976487,17.7057813 C18.97224,17.321466 19.4501888,16.9900108 20.0663641,16.6012494 C20.2267825,16.5000371 20.7492081,16.1761683 20.7493528,16.176078 C20.9943002,16.0232304 21.1671417,15.911644 21.3209719,15.8056764 C21.7644537,15.5001789 21.8977569,15.2091335 22,15 L22,10.0098624 C22,9.4442398 21.5583704,9 21.008845,9 L2.991155,9 C2.4448243,9 2,9.4492836 2,10.0098624 L2,15 C2.1070019,15.2188676 2.256644,15.5102234 2.757096,15.8266684 C2.9814338,15.9685214 3.9276342,16.5206132 3.9645447,16.542683 C4.5372867,16.8851414 4.9974035,17.190503 5.4495433,17.5430639 C7.0378527,18.7815659 8.2021221,20.3931148 8.950775,22.6901178 L9,22.8411492 L9,23 L9,24 Z M8,14 L16,14 L16,15 L8,15 L8,14 Z M9,16 L15,16 L15,17 L9,17 L9,16 Z M9,12 L15,12 L15,13 L9,13 L9,12 Z M11,26 L11,30 L13,30 L13,26 L11,26 Z" id="Path"></path>
        </g>
    </g>
</svg>