<?xml version="1.0" encoding="UTF-8"?>
<svg width="24px" height="28px" viewBox="0 0 24 28" version="1.1" xmlns="http://www.w3.org/2000/svg" xmlns:xlink="http://www.w3.org/1999/xlink">
    <!-- Generator: Sketch 46.2 (44496) - http://www.bohemiancoding.com/sketch -->
    <title>temperatura_interna</title>
    <desc>Created with Sketch.</desc>
    <defs></defs>
    <g id="Page-1" stroke="none" stroke-width="1" fill="none" fill-rule="evenodd">
        <g id="temperatura_interna" fill-rule="nonzero" fill="#1FD5E8">
            <path d="M12.8,12.6 L12.8,7 L15.5,4.3 C15.8,4 15.8,3.5 15.5,3.1 C15.2,2.8 14.7,2.8 14.3,3.1 L12.8,4.6 L12.8,1.6 C12.8,1.2 12.4,0.8 12,0.8 C11.5,0.8 11.2,1.2 11.2,1.6 L11.2,4.6 L9.7,3.1 C9.4,2.8 8.9,2.8 8.5,3.1 C8.2,3.4 8.2,3.9 8.5,4.3 L11.2,7 L11.2,12.5 L6.4,9.7 L5.4,6.1 C5.3,5.7 4.8,5.4 4.4,5.5 C4,5.6 3.7,6.1 3.8,6.5 L4.4,8.6 L1.8,7.1 C1.4,6.9 0.9,7 0.7,7.4 C0.5,7.8 0.6,8.3 1,8.5 L3.6,10 L1.5,10.6 C1.1,10.7 0.8,11.2 0.9,11.6 C1,12 1.5,12.3 1.9,12.2 L5.5,11.2 L10.3,14 L5.5,16.8 L1.9,15.8 C1.5,15.7 1,15.9 0.9,16.4 C0.8,16.8 1,17.3 1.5,17.4 L3.6,18 L1,19.5 C0.6,19.7 0.5,20.2 0.7,20.6 C0.9,21 1.4,21.1 1.8,20.9 L4.4,19.4 L3.8,21.5 C3.7,21.9 3.9,22.4 4.4,22.5 C4.8,22.6 5.3,22.4 5.4,21.9 L6.4,18.3 L11.2,15.5 L11.2,21 L8.5,23.7 C8.2,24 8.2,24.5 8.5,24.9 C8.8,25.2 9.3,25.2 9.7,24.9 L11.2,23.4 L11.2,26.3 C11.2,26.7 11.6,27.1 12,27.1 C12.5,27.1 12.8,26.7 12.8,26.3 L12.8,23.3 L14.3,24.8 C14.6,25.1 15.1,25.1 15.5,24.8 C15.8,24.5 15.8,24 15.5,23.6 L12.8,21 L12.8,15.4 L17.6,18.2 L18.6,21.9 C18.7,22.3 19.2,22.6 19.6,22.5 C20,22.4 20.3,21.9 20.2,21.5 L19.6,19.4 L22.1,20.9 C22.5,21.1 23,21 23.2,20.6 C23.4,20.2 23.3,19.7 22.9,19.5 L20.5,18 L22.6,17.4 C23,17.3 23.3,16.8 23.2,16.4 C23.1,16 22.6,15.7 22.2,15.8 L18.5,16.7 L13.6,14 L18.4,11.2 L22.1,12.1 C22.5,12.2 23,12 23.1,11.5 C23.2,11.1 23,10.6 22.5,10.5 L20.5,10 L23,8.5 C23.4,8.3 23.5,7.8 23.3,7.4 C23.1,7 22.6,6.9 22.2,7.1 L19.6,8.6 L20.2,6.5 C20.3,6.1 20.1,5.6 19.6,5.5 C19.2,5.4 18.7,5.6 18.6,6.1 L17.6,9.8 L12.8,12.6 L12.8,12.6 Z" id="cold"></path>
        </g>
    </g>
</svg>