<?xml version="1.0" encoding="utf-8"?>
<!-- Generator: Adobe Illustrator 21.0.2, SVG Export Plug-In . SVG Version: 6.00 Build 0)  -->
<svg version="1.1" id="Capa_1" xmlns="http://www.w3.org/2000/svg" xmlns:xlink="http://www.w3.org/1999/xlink" x="0px" y="0px"
	 viewBox="0 0 24 28" style="enable-background:new 0 0 24 28;" xml:space="preserve">
<style type="text/css">
	.st0{fill:#1FE88C;}
</style>
<title>cold</title>
<desc>Created with Sketch.</desc>
<g id="Dashboard" transform="translate(-26.000000, -373.000000)">
	<g id="Group-Copy-4" transform="translate(0.000000, 364.000000)">
		<path id="cold" class="st0" d="M38.8,21.6V16l2.7-2.7c0.3-0.3,0.3-0.8,0-1.2c-0.3-0.3-0.8-0.3-1.2,0l-1.5,1.5v-3
			c0-0.4-0.4-0.8-0.8-0.8c-0.5,0-0.8,0.4-0.8,0.8v3l-1.5-1.5c-0.3-0.3-0.8-0.3-1.2,0c-0.3,0.3-0.3,0.8,0,1.2l2.7,2.7v5.5l-4.8-2.8
			l-1-3.6c-0.1-0.4-0.6-0.7-1-0.6c-0.4,0.1-0.7,0.6-0.6,1l0.6,2.1l-2.6-1.5c-0.4-0.2-0.9-0.1-1.1,0.3c-0.2,0.4-0.1,0.9,0.3,1.1
			l2.6,1.5l-2.1,0.6c-0.4,0.1-0.7,0.6-0.6,1c0.1,0.4,0.6,0.7,1,0.6l3.6-1l4.8,2.8l-4.8,2.8l-3.6-1c-0.4-0.1-0.9,0.1-1,0.6
			c-0.1,0.4,0.1,0.9,0.6,1l2.1,0.6l-2.6,1.5c-0.4,0.2-0.5,0.7-0.3,1.1c0.2,0.4,0.7,0.5,1.1,0.3l2.6-1.5l-0.6,2.1
			c-0.1,0.4,0.1,0.9,0.6,1c0.4,0.1,0.9-0.1,1-0.6l1-3.6l4.8-2.8V30l-2.7,2.7c-0.3,0.3-0.3,0.8,0,1.2c0.3,0.3,0.8,0.3,1.2,0l1.5-1.5
			v2.9c0,0.4,0.4,0.8,0.8,0.8c0.5,0,0.8-0.4,0.8-0.8v-3l1.5,1.5c0.3,0.3,0.8,0.3,1.2,0c0.3-0.3,0.3-0.8,0-1.2L38.8,30v-5.6l4.8,2.8
			l1,3.7c0.1,0.4,0.6,0.7,1,0.6c0.4-0.1,0.7-0.6,0.6-1l-0.6-2.1l2.5,1.5c0.4,0.2,0.9,0.1,1.1-0.3c0.2-0.4,0.1-0.9-0.3-1.1L46.5,27
			l2.1-0.6c0.4-0.1,0.7-0.6,0.6-1c-0.1-0.4-0.6-0.7-1-0.6l-3.7,0.9L39.6,23l4.8-2.8l3.7,0.9c0.4,0.1,0.9-0.1,1-0.6
			c0.1-0.4-0.1-0.9-0.6-1L46.5,19l2.5-1.5c0.4-0.2,0.5-0.7,0.3-1.1c-0.2-0.4-0.7-0.5-1.1-0.3l-2.6,1.5l0.6-2.1
			c0.1-0.4-0.1-0.9-0.6-1c-0.4-0.1-0.9,0.1-1,0.6l-1,3.7L38.8,21.6L38.8,21.6z"/>
	</g>
</g>
</svg>
