<?xml version="1.0" encoding="UTF-8"?>
<svg width="24px" height="28px" viewBox="0 0 24 28" version="1.1" xmlns="http://www.w3.org/2000/svg" xmlns:xlink="http://www.w3.org/1999/xlink">
    <!-- Generator: Sketch 48.2 (47327) - http://www.bohemiancoding.com/sketch -->
    <title>cold</title>
    <desc>Created with Sketch.</desc>
    <defs></defs>
    <g id="Dashboard" stroke="none" stroke-width="1" fill="none" fill-rule="evenodd" transform="translate(-26.000000, -329.000000)">
        <g id="Group-Copy-3" transform="translate(0.000000, 320.000000)" fill="#51A1FF">
            <path d="M38.8141256,21.5764553 L38.8141256,16.0139857 L41.4793121,13.3385488 C41.8024898,13.0153712 41.8001659,12.4973068 41.4792003,12.1763412 C41.1559969,11.8531378 40.6378965,11.8553254 40.3169926,12.1762293 L38.8141257,13.6790962 L38.8141257,10.6658108 C38.8141257,10.2216447 38.4461557,9.84985552 37.9922417,9.84985552 C37.5351631,9.84985552 37.1703577,10.2151711 37.1703577,10.6658108 L37.1703577,13.7083008 L35.6674908,12.2054339 C35.3465869,11.88453 34.8284865,11.8823424 34.5052831,12.2055458 C34.1843174,12.5265115 34.1819936,13.0445758 34.5051713,13.3677535 L37.1703575,16.0431904 L37.1703575,21.5764552 L32.3531178,18.7952205 L31.3687148,15.1493828 C31.2504235,14.707914 30.8006047,14.4508943 30.3621575,14.5683759 C29.9206534,14.6866765 29.6634978,15.1364584 29.7809567,15.5748213 L30.3310442,17.6277756 L27.7214625,16.121133 C27.3368034,15.8990499 26.8308395,16.0318267 26.6038825,16.4249278 C26.3753432,16.8207695 26.5093131,17.319358 26.8995785,17.5446779 L29.5344521,19.0659229 L27.4814978,19.6160103 C27.0431349,19.7334693 26.7821902,20.1810636 26.9004909,20.6225676 C27.0179725,21.0610149 27.4654674,21.3220595 27.9069363,21.2037683 L31.5565258,20.2333678 L36.3484736,23.0000002 L31.5312339,25.7812348 L27.8816443,24.810834 C27.4401755,24.6925428 26.9926805,24.9535874 26.8751989,25.3920347 C26.7568982,25.8335388 27.017843,26.281133 27.4562058,26.398592 L29.5091602,26.9486795 L26.8995785,28.4553221 C26.5149193,28.6774052 26.3769255,29.1819712 26.6038825,29.5750722 C26.8324218,29.9709139 27.3311971,30.1041869 27.7214625,29.878867 L30.3563362,28.357622 L29.8062487,30.4105764 C29.6887897,30.8489392 29.9459454,31.2987211 30.3874494,31.4170218 C30.8258967,31.5345034 31.2757155,31.2774837 31.3940067,30.8360149 L32.3784099,27.1901774 L37.1703575,24.4235451 L37.1703575,30.0152189 L34.5051713,32.7423581 C34.1819936,33.0655357 34.1843174,33.5836001 34.5052831,33.9045658 C34.8284865,34.2277692 35.3465869,34.2255815 35.6674908,33.9046777 L37.1703577,32.4018108 L37.1703577,35.3341892 C37.1703577,35.7783553 37.5383277,36.1501445 37.9922417,36.1501445 C38.4493203,36.1501445 38.8141257,35.7848289 38.8141257,35.3341892 L38.8141257,32.3726061 L40.3169926,33.875473 C40.6378965,34.1963769 41.1559969,34.1985645 41.4792003,33.8753611 C41.8001659,33.5543955 41.8024898,33.0363311 41.4793121,32.7131535 L38.8141256,29.9860143 L38.8141256,24.423545 L43.6566574,27.219382 L44.6858361,30.8910706 C44.8041273,31.3325395 45.2539461,31.5895592 45.6923934,31.4720776 C46.1338974,31.3537769 46.3910531,30.903995 46.2735941,30.4656322 L45.7235067,28.4126778 L48.2630209,29.878867 C48.64768,30.1009501 49.1536439,29.9681733 49.3806009,29.5750722 C49.6091402,29.1792305 49.4751703,28.680642 49.0849049,28.4553221 L46.5200987,26.9745306 L48.5730531,26.4244432 C49.0114159,26.3069842 49.2723607,25.8593899 49.15406,25.4178859 C49.0365784,24.9794386 48.5890834,24.7183939 48.1476146,24.8366851 L44.4532495,25.7812348 L39.6360098,23.0000002 L44.4785416,20.2041631 L48.1729065,21.1487125 C48.6143754,21.2670038 49.0618704,21.0059591 49.179352,20.5675118 C49.2976526,20.1260078 49.0367079,19.6784135 48.598345,19.5609545 L46.5453907,19.0108671 L49.0849049,17.5446779 C49.469564,17.3225948 49.6075579,16.8180288 49.3806009,16.4249278 C49.1520616,16.0290861 48.6532863,15.8958131 48.2630209,16.121133 L45.6982147,17.6019245 L46.2483022,15.5489702 C46.3657611,15.1106073 46.1086055,14.6608254 45.6671014,14.5425247 C45.2286542,14.4250431 44.7788354,14.6820628 44.6605441,15.1235317 L43.6313656,18.7952205 L38.8141256,21.5764553 L38.8141256,21.5764553 Z" id="cold"></path>
        </g>
    </g>
</svg>