<?xml version="1.0" encoding="UTF-8"?>
<svg width="33px" height="32px" viewBox="0 0 33 32" version="1.1" xmlns="http://www.w3.org/2000/svg" xmlns:xlink="http://www.w3.org/1999/xlink">
    <!-- Generator: Sketch 48.2 (47327) - http://www.bohemiancoding.com/sketch -->
    <title>ventilation</title>
    <desc>Created with Sketch.</desc>
    <defs></defs>
    <g id="Dashboard" stroke="none" stroke-width="1" fill="none" fill-rule="evenodd" transform="translate(-20.000000, -168.000000)">
        <g id="Group" transform="translate(-1.000000, 162.000000)" fill="#4CD06D">
            <path d="M41.0592311,16.264629 C47.3680639,12.926037 53.0710678,16.7598988 53.0710678,23.0526612 C53.0710678,28.5091444 49.4612218,30.5146143 45.5163676,27.8847115 C44.2596321,27.0129791 43.4406896,26.4495868 42.848136,26.0676416 C46.1127751,32.3448124 42.2847329,38 36.0184066,38 C30.5619235,38 28.5564535,34.390154 31.1863563,30.4452998 C32.1002672,29.1277577 32.6752782,28.2913983 33.057607,27.6926228 C26.7306142,31.0740808 21,27.236909 21,20.9289322 C21,15.4724491 24.609846,13.4669791 28.5547002,16.0968819 C29.8208595,16.9751512 30.6426355,17.5404387 31.2362238,17.9225134 C27.9807027,11.6492759 31.8080176,6 38.0710678,6 C43.5275509,6 45.5330209,9.60984596 42.9031181,13.5547002 C42.0107529,14.8411809 41.4414967,15.6688995 41.0592311,16.264629 Z M40.652306,18.8663947 C40.652306,18.8663947 41.5710678,20.6733875 41.5710678,22 C41.5710678,22.4157196 41.5146957,22.8182727 41.4091786,23.2004324 C41.6829308,23.2645302 41.9512735,23.3499327 42.2202363,23.4575179 C43.1663569,23.8359661 44.100764,24.4589042 46.625768,26.2206109 C49.2263683,27.9543445 51.0710678,26.9295114 51.0710678,23.0526612 C51.0710678,17.8052453 46.1722422,14.9235831 40.652306,18.8663947 Z M38.4759245,16.8508315 C38.8543727,15.9047109 39.4773108,14.9703038 41.2390175,12.4452998 C42.9727511,9.84469949 41.947918,8 38.0710678,8 C32.8236519,8 29.9419897,12.8988257 33.8848013,18.4187618 C33.8848013,18.4187618 35.7752974,17.5 37.0710678,17.5 C37.4688744,17.5 37.8546248,17.5516187 38.2219864,17.6485236 C38.2857233,17.3793998 38.3700908,17.1154157 38.4759245,16.8508315 Z M31.8508315,20.5240755 C30.9047109,20.1456273 29.9703038,19.5226892 27.4452998,17.7609825 C24.8446995,16.0272489 23,17.052082 23,20.9289322 C23,26.1763481 27.8988257,29.0580103 33.4187618,25.1151987 C33.4187618,25.1151987 32.5710678,23.3025191 32.5710678,22 C32.5710678,21.5835037 32.6276508,21.1802231 32.7335489,20.7974258 C32.4348785,20.7317723 32.1432214,20.6410315 31.8508315,20.5240755 Z M35.61355,27.1491685 C35.2351017,28.0952891 34.6121636,29.0296962 32.8504569,31.5547002 C31.1167234,34.1553005 32.1415564,36 36.0184066,36 C41.2658225,36 44.1474847,31.1011743 40.2046731,25.5812382 C40.2046731,25.5812382 38.3735869,26.5 37.0710678,26.5 C36.6553482,26.5 36.2527951,26.4436279 35.8706354,26.3381108 C35.8065376,26.611863 35.7211351,26.8802057 35.61355,27.1491685 Z M37.0710678,25.5 C39.0040644,25.5 40.5710678,23.9329966 40.5710678,22 C40.5710678,20.0670034 39.0040644,18.5 37.0710678,18.5 C35.1380712,18.5 33.5710678,20.0670034 33.5710678,22 C33.5710678,23.9329966 35.1380712,25.5 37.0710678,25.5 Z" id="ventilation"></path>
        </g>
    </g>
</svg>