<?xml version="1.0" encoding="UTF-8"?>
<svg width="33px" height="32px" viewBox="0 0 33 32" version="1.1" xmlns="http://www.w3.org/2000/svg" xmlns:xlink="http://www.w3.org/1999/xlink">
    <!-- Generator: Sketch 48.2 (47327) - http://www.bohemiancoding.com/sketch -->
    <title>ventilador_off</title>
    <desc>Created with Sketch.</desc>
    <defs></defs>
    <g id="iPhone-8" stroke="none" stroke-width="1" fill="none" fill-rule="evenodd" transform="translate(-78.000000, -585.000000)">
        <path d="M98.0592311,595.264629 C104.368064,591.926037 110.071068,595.759899 110.071068,602.052661 C110.071068,607.509144 106.461222,609.514614 102.516368,606.884712 C101.259632,606.012979 100.44069,605.449587 99.848136,605.067642 C103.112775,611.344812 99.2847329,617 93.0184066,617 C87.5619235,617 85.5564535,613.390154 88.1863563,609.4453 C89.1002672,608.127758 89.6752782,607.291398 90.057607,606.692623 C83.7306142,610.074081 78,606.236909 78,599.928932 C78,594.472449 81.609846,592.466979 85.5547002,595.096882 C86.8208595,595.975151 87.6426355,596.540439 88.2362238,596.922513 C84.9807027,590.649276 88.8080176,585 95.0710678,585 C100.527551,585 102.533021,588.609846 99.9031181,592.5547 C99.0107529,593.841181 98.4414967,594.668899 98.0592311,595.264629 Z M97.652306,597.866395 C97.652306,597.866395 98.5710678,599.673388 98.5710678,601 C98.5710678,601.41572 98.5146957,601.818273 98.4091786,602.200432 C98.6829308,602.26453 98.9512735,602.349933 99.2202363,602.457518 C100.166357,602.835966 101.100764,603.458904 103.625768,605.220611 C106.226368,606.954344 108.071068,605.929511 108.071068,602.052661 C108.071068,596.805245 103.172242,593.923583 97.652306,597.866395 Z M95.4759245,595.850832 C95.8543727,594.904711 96.4773108,593.970304 98.2390175,591.4453 C99.9727511,588.844699 98.947918,587 95.0710678,587 C89.8236519,587 86.9419897,591.898826 90.8848013,597.418762 C90.8848013,597.418762 92.7752974,596.5 94.0710678,596.5 C94.4688744,596.5 94.8546248,596.551619 95.2219864,596.648524 C95.2857233,596.3794 95.3700908,596.115416 95.4759245,595.850832 Z M88.8508315,599.524076 C87.9047109,599.145627 86.9703038,598.522689 84.4452998,596.760982 C81.8446995,595.027249 80,596.052082 80,599.928932 C80,605.176348 84.8988257,608.05801 90.4187618,604.115199 C90.4187618,604.115199 89.5710678,602.302519 89.5710678,601 C89.5710678,600.583504 89.6276508,600.180223 89.7335489,599.797426 C89.4348785,599.731772 89.1432214,599.641031 88.8508315,599.524076 Z M92.61355,606.149168 C92.2351017,607.095289 91.6121636,608.029696 89.8504569,610.5547 C88.1167234,613.155301 89.1415564,615 93.0184066,615 C98.2658225,615 101.147485,610.101174 97.2046731,604.581238 C97.2046731,604.581238 95.3735869,605.5 94.0710678,605.5 C93.6553482,605.5 93.2527951,605.443628 92.8706354,605.338111 C92.8065376,605.611863 92.7211351,605.880206 92.61355,606.149168 Z M94.0710678,604.5 C96.0040644,604.5 97.5710678,602.932997 97.5710678,601 C97.5710678,599.067003 96.0040644,597.5 94.0710678,597.5 C92.1380712,597.5 90.5710678,599.067003 90.5710678,601 C90.5710678,602.932997 92.1380712,604.5 94.0710678,604.5 Z" id="ventilador_off" fill="#D1501D"></path>
    </g>
</svg>